<svg width="579" height="216" viewBox="0 0 579 216" fill="none" xmlns="http://www.w3.org/2000/svg">
<path d="M268.467 125.115C268.168 122.854 267.55 120.891 266.611 119.227C265.672 117.521 264.414 116.219 262.835 115.323C261.299 114.385 259.443 113.915 257.267 113.915C255.176 113.915 253.427 114.513 252.019 115.707C250.654 116.902 249.971 118.374 249.971 120.123C249.971 121.574 250.376 122.833 251.187 123.899C252.04 124.966 253.256 125.947 254.835 126.843C256.414 127.697 258.291 128.593 260.467 129.531C262.088 130.214 263.731 130.982 265.395 131.835C267.059 132.646 268.595 133.627 270.003 134.779C271.411 135.931 272.542 137.275 273.395 138.811C274.291 140.305 274.739 142.097 274.739 144.187C274.739 146.662 274.078 148.859 272.755 150.779C271.475 152.699 269.64 154.193 267.251 155.259C264.862 156.326 262.046 156.859 258.803 156.859C257.011 156.859 255.112 156.582 253.107 156.027C251.102 155.515 249.267 154.726 247.603 153.659L247.795 156.411H243.443L243.315 141.883H246.963C247.432 145.51 248.776 148.262 250.995 150.139C253.214 151.974 255.88 152.891 258.995 152.891C260.574 152.891 261.982 152.614 263.219 152.059C264.456 151.462 265.416 150.673 266.099 149.691C266.824 148.667 267.187 147.515 267.187 146.235C267.187 144.571 266.675 143.206 265.651 142.139C264.627 141.073 263.326 140.155 261.747 139.387C260.168 138.619 258.526 137.873 256.819 137.147C254.899 136.337 253.086 135.483 251.379 134.587C249.672 133.649 248.158 132.603 246.835 131.451C245.555 130.257 244.531 128.891 243.763 127.355C243.038 125.819 242.675 124.006 242.675 121.915C242.675 120.678 242.91 119.377 243.379 118.011C243.848 116.603 244.616 115.302 245.683 114.107C246.792 112.913 248.264 111.931 250.099 111.163C251.934 110.395 254.216 110.011 256.947 110.011C258.654 110.011 260.51 110.267 262.515 110.779C264.563 111.249 266.355 112.038 267.891 113.147L267.635 110.459H272.051V125.115H268.467ZM298.22 155.835C298.092 155.195 298.007 154.662 297.964 154.235C297.964 153.766 297.943 153.233 297.9 152.635C296.449 154.086 294.892 155.153 293.228 155.835C291.607 156.518 289.921 156.859 288.172 156.859C285.271 156.859 283.031 156.07 281.452 154.491C279.916 152.913 279.148 150.971 279.148 148.667C279.148 146.619 279.703 144.891 280.812 143.483C281.921 142.033 283.372 140.859 285.164 139.963C286.956 139.025 288.94 138.321 291.116 137.851C293.292 137.339 295.447 137.062 297.58 137.019V133.499C297.58 132.262 297.431 131.131 297.132 130.107C296.876 129.041 296.385 128.209 295.66 127.611C294.935 126.971 293.868 126.651 292.46 126.651C291.521 126.694 290.561 126.907 289.58 127.291C288.641 127.633 287.895 128.187 287.34 128.955C287.681 129.339 287.895 129.766 287.98 130.235C288.065 130.662 288.108 131.046 288.108 131.387C288.108 132.155 287.809 132.966 287.212 133.819C286.615 134.63 285.655 135.014 284.332 134.971C283.18 134.929 282.284 134.523 281.644 133.755C281.047 132.987 280.748 132.07 280.748 131.003C280.748 129.382 281.324 127.974 282.476 126.779C283.671 125.542 285.271 124.582 287.276 123.899C289.281 123.174 291.521 122.811 293.996 122.811C297.665 122.811 300.481 123.771 302.444 125.691C304.407 127.611 305.367 130.683 305.324 134.907C305.324 136.401 305.324 137.766 305.324 139.003C305.324 140.198 305.303 141.414 305.26 142.651C305.26 143.846 305.26 145.19 305.26 146.683C305.26 147.323 305.239 148.134 305.196 149.115C305.153 150.054 305.089 150.993 305.004 151.931C305.772 151.846 306.54 151.803 307.308 151.803C308.119 151.761 308.78 151.718 309.292 151.675V155.835H298.22ZM297.516 140.795C296.236 140.881 294.977 141.094 293.74 141.435C292.503 141.734 291.393 142.161 290.412 142.715C289.431 143.27 288.641 143.974 288.044 144.827C287.489 145.638 287.233 146.577 287.276 147.643C287.319 148.966 287.745 149.947 288.556 150.587C289.367 151.185 290.305 151.483 291.372 151.483C292.609 151.483 293.719 151.227 294.7 150.715C295.724 150.203 296.663 149.521 297.516 148.667C297.516 148.241 297.516 147.793 297.516 147.323C297.516 146.854 297.516 146.385 297.516 145.915C297.516 145.318 297.516 144.571 297.516 143.675C297.516 142.779 297.516 141.819 297.516 140.795ZM317.195 122.171C317.195 117.137 318.24 113.425 320.331 111.035C322.422 108.603 325.451 107.387 329.419 107.387C331.083 107.387 332.47 107.643 333.579 108.155C334.731 108.625 335.606 109.265 336.203 110.075C336.8 110.886 337.099 111.782 337.099 112.763C337.099 113.745 336.8 114.619 336.203 115.387C335.606 116.155 334.731 116.539 333.579 116.539C332.427 116.582 331.552 116.262 330.955 115.579C330.358 114.897 330.059 114.129 330.059 113.275C330.059 113.019 330.08 112.785 330.123 112.571C330.166 112.358 330.208 112.123 330.251 111.867C330.038 111.611 329.739 111.441 329.355 111.355C329.014 111.227 328.694 111.163 328.395 111.163C327.499 111.163 326.795 111.441 326.283 111.995C325.771 112.507 325.43 113.147 325.259 113.915C325.088 114.683 325.003 115.494 325.003 116.347V123.835H332.619V127.931L325.003 128.123L325.067 146.619C325.067 147.302 325.046 148.134 325.003 149.115C325.003 150.097 324.939 151.035 324.811 151.931C325.536 151.846 326.304 151.803 327.115 151.803C327.968 151.761 328.651 151.739 329.163 151.739V155.835H313.419V152.443C314.656 152.443 315.531 152.187 316.043 151.675C316.598 151.121 316.939 150.353 317.067 149.371C317.195 148.39 317.259 147.281 317.259 146.043L317.195 128.251L312.331 128.315V123.835H317.195V122.171ZM351.148 156.859C348.076 156.859 345.345 156.177 342.956 154.811C340.567 153.403 338.711 151.441 337.388 148.923C336.065 146.363 335.404 143.355 335.404 139.899C335.404 136.913 336.065 134.118 337.388 131.515C338.711 128.913 340.567 126.822 342.956 125.243C345.388 123.622 348.204 122.811 351.404 122.811C353.196 122.811 354.924 123.067 356.588 123.579C358.252 124.091 359.745 124.945 361.068 126.139C362.391 127.334 363.436 128.913 364.204 130.875C365.015 132.838 365.399 135.227 365.356 138.043L343.852 138.427C343.852 141.073 344.151 143.419 344.748 145.467C345.388 147.473 346.412 149.073 347.82 150.267C349.228 151.419 351.084 151.995 353.388 151.995C354.412 151.995 355.5 151.825 356.652 151.483C357.847 151.099 359.02 150.545 360.172 149.819C361.324 149.051 362.348 148.113 363.244 147.003L365.676 149.243C364.268 151.291 362.711 152.87 361.004 153.979C359.297 155.089 357.591 155.835 355.884 156.219C354.177 156.646 352.599 156.859 351.148 156.859ZM344.172 134.587H357.484C357.441 132.881 357.185 131.451 356.716 130.299C356.289 129.105 355.649 128.209 354.796 127.611C353.943 126.971 352.897 126.651 351.66 126.651C349.569 126.651 347.884 127.355 346.604 128.763C345.367 130.129 344.556 132.07 344.172 134.587ZM381.5 155.835V152.315C382.695 152.273 383.612 152.081 384.252 151.739C384.892 151.355 385.34 150.715 385.596 149.819C385.852 148.881 385.98 147.601 385.98 145.979V120.443C385.98 119.377 386.001 118.353 386.044 117.371C386.129 116.39 386.193 115.622 386.236 115.067C385.511 115.11 384.679 115.153 383.74 115.195C382.801 115.195 382.055 115.217 381.5 115.259V111.035H398.524V114.555C397.372 114.598 396.455 114.811 395.772 115.195C395.132 115.537 394.684 116.155 394.428 117.051C394.172 117.947 394.044 119.227 394.044 120.891V131.067H413.372V120.443C413.372 119.377 413.393 118.353 413.436 117.371C413.479 116.39 413.543 115.622 413.628 115.067C412.903 115.11 412.071 115.153 411.132 115.195C410.193 115.195 409.447 115.217 408.892 115.259V111.035H425.916V114.555C424.764 114.598 423.847 114.811 423.164 115.195C422.524 115.537 422.076 116.155 421.82 117.051C421.564 117.947 421.436 119.227 421.436 120.891V146.299C421.436 147.451 421.415 148.518 421.372 149.499C421.329 150.481 421.265 151.249 421.18 151.803C421.905 151.761 422.737 151.718 423.676 151.675C424.657 151.633 425.404 151.611 425.916 151.611V155.835H408.892V152.315C410.087 152.273 411.004 152.081 411.644 151.739C412.284 151.355 412.732 150.715 412.988 149.819C413.244 148.881 413.372 147.601 413.372 145.979V135.163L394.044 135.419V146.299C394.044 147.451 394.023 148.518 393.98 149.499C393.937 150.481 393.873 151.249 393.788 151.803C394.513 151.761 395.345 151.718 396.284 151.675C397.223 151.633 397.969 151.611 398.524 151.611V155.835H381.5ZM449.603 155.835C449.475 155.195 449.39 154.662 449.347 154.235C449.347 153.766 449.326 153.233 449.283 152.635C447.832 154.086 446.275 155.153 444.611 155.835C442.99 156.518 441.304 156.859 439.555 156.859C436.654 156.859 434.414 156.07 432.835 154.491C431.299 152.913 430.531 150.971 430.531 148.667C430.531 146.619 431.086 144.891 432.195 143.483C433.304 142.033 434.755 140.859 436.547 139.963C438.339 139.025 440.323 138.321 442.499 137.851C444.675 137.339 446.83 137.062 448.963 137.019V133.499C448.963 132.262 448.814 131.131 448.515 130.107C448.259 129.041 447.768 128.209 447.043 127.611C446.318 126.971 445.251 126.651 443.843 126.651C442.904 126.694 441.944 126.907 440.963 127.291C440.024 127.633 439.278 128.187 438.723 128.955C439.064 129.339 439.278 129.766 439.363 130.235C439.448 130.662 439.491 131.046 439.491 131.387C439.491 132.155 439.192 132.966 438.595 133.819C437.998 134.63 437.038 135.014 435.715 134.971C434.563 134.929 433.667 134.523 433.027 133.755C432.43 132.987 432.131 132.07 432.131 131.003C432.131 129.382 432.707 127.974 433.859 126.779C435.054 125.542 436.654 124.582 438.659 123.899C440.664 123.174 442.904 122.811 445.379 122.811C449.048 122.811 451.864 123.771 453.827 125.691C455.79 127.611 456.75 130.683 456.707 134.907C456.707 136.401 456.707 137.766 456.707 139.003C456.707 140.198 456.686 141.414 456.643 142.651C456.643 143.846 456.643 145.19 456.643 146.683C456.643 147.323 456.622 148.134 456.579 149.115C456.536 150.054 456.472 150.993 456.387 151.931C457.155 151.846 457.923 151.803 458.691 151.803C459.502 151.761 460.163 151.718 460.675 151.675V155.835H449.603ZM448.899 140.795C447.619 140.881 446.36 141.094 445.123 141.435C443.886 141.734 442.776 142.161 441.795 142.715C440.814 143.27 440.024 143.974 439.427 144.827C438.872 145.638 438.616 146.577 438.659 147.643C438.702 148.966 439.128 149.947 439.939 150.587C440.75 151.185 441.688 151.483 442.755 151.483C443.992 151.483 445.102 151.227 446.083 150.715C447.107 150.203 448.046 149.521 448.899 148.667C448.899 148.241 448.899 147.793 448.899 147.323C448.899 146.854 448.899 146.385 448.899 145.915C448.899 145.318 448.899 144.571 448.899 143.675C448.899 142.779 448.899 141.819 448.899 140.795ZM475.828 156.027L466.036 134.267C465.524 133.03 465.14 132.027 464.884 131.259C464.628 130.491 464.436 129.851 464.308 129.339C464.223 128.827 464.137 128.315 464.052 127.803L461.556 127.931V123.835H475.444V127.227C474.42 127.227 473.737 127.505 473.396 128.059C473.097 128.571 473.012 129.275 473.14 130.171C473.311 131.025 473.588 131.942 473.972 132.923L477.812 142.139C478.153 142.907 478.495 143.718 478.836 144.571C479.177 145.382 479.497 146.214 479.796 147.067H479.86C480.159 146.257 480.457 145.446 480.756 144.635C481.097 143.782 481.396 142.929 481.652 142.075L485.172 132.219C485.556 131.153 485.919 130.278 486.26 129.595C486.601 128.913 486.921 128.294 487.22 127.739L483.252 127.931V123.835H494.708V127.227C493.727 127.313 492.873 127.782 492.148 128.635C491.423 129.446 490.783 130.449 490.228 131.643C489.673 132.795 489.161 133.99 488.692 135.227L480.436 156.027H475.828ZM512.281 156.859C509.209 156.859 506.478 156.177 504.089 154.811C501.7 153.403 499.844 151.441 498.521 148.923C497.198 146.363 496.537 143.355 496.537 139.899C496.537 136.913 497.198 134.118 498.521 131.515C499.844 128.913 501.7 126.822 504.089 125.243C506.521 123.622 509.337 122.811 512.537 122.811C514.329 122.811 516.057 123.067 517.721 123.579C519.385 124.091 520.878 124.945 522.201 126.139C523.524 127.334 524.569 128.913 525.337 130.875C526.148 132.838 526.532 135.227 526.489 138.043L504.985 138.427C504.985 141.073 505.284 143.419 505.881 145.467C506.521 147.473 507.545 149.073 508.953 150.267C510.361 151.419 512.217 151.995 514.521 151.995C515.545 151.995 516.633 151.825 517.785 151.483C518.98 151.099 520.153 150.545 521.305 149.819C522.457 149.051 523.481 148.113 524.377 147.003L526.809 149.243C525.401 151.291 523.844 152.87 522.137 153.979C520.43 155.089 518.724 155.835 517.017 156.219C515.31 156.646 513.732 156.859 512.281 156.859ZM505.305 134.587H518.617C518.574 132.881 518.318 131.451 517.849 130.299C517.422 129.105 516.782 128.209 515.929 127.611C515.076 126.971 514.03 126.651 512.793 126.651C510.702 126.651 509.017 127.355 507.737 128.763C506.5 130.129 505.689 132.07 505.305 134.587ZM531.485 155.835V152.443C532.722 152.443 533.597 152.187 534.109 151.675C534.621 151.121 534.941 150.353 535.069 149.371C535.197 148.39 535.261 147.281 535.261 146.043V134.011C535.261 133.243 535.282 132.433 535.325 131.579C535.368 130.726 535.432 129.851 535.517 128.955C534.834 128.998 534.045 129.041 533.149 129.083C532.296 129.126 531.592 129.169 531.037 129.211V125.051C532.957 125.051 534.536 124.966 535.773 124.795C537.01 124.582 537.97 124.326 538.653 124.027C539.336 123.729 539.826 123.451 540.125 123.195H542.813C542.898 123.665 542.941 124.049 542.941 124.347C542.941 124.646 542.962 124.966 543.005 125.307C543.048 125.606 543.112 126.054 543.197 126.651C544.05 125.926 545.032 125.286 546.141 124.731C547.293 124.134 548.445 123.665 549.597 123.323C550.749 122.982 551.816 122.811 552.797 122.811C556.637 122.811 559.389 123.942 561.053 126.203C562.717 128.465 563.549 132.07 563.549 137.019V146.683C563.549 147.366 563.528 148.198 563.485 149.179C563.485 150.118 563.421 151.035 563.293 151.931C564.018 151.846 564.765 151.803 565.533 151.803C566.301 151.761 566.941 151.739 567.453 151.739V155.835H551.901V152.443C553.138 152.443 554.013 152.187 554.525 151.675C555.08 151.121 555.421 150.353 555.549 149.371C555.677 148.39 555.741 147.281 555.741 146.043L555.677 136.955C555.677 133.883 555.208 131.601 554.269 130.107C553.373 128.571 551.88 127.803 549.789 127.803C548.552 127.846 547.336 128.145 546.141 128.699C544.946 129.254 543.944 129.958 543.133 130.811C543.176 131.323 543.197 131.857 543.197 132.411C543.197 132.966 543.197 133.521 543.197 134.075L543.133 146.683C543.133 147.366 543.112 148.198 543.069 149.179C543.069 150.118 543.005 151.035 542.877 151.931C543.56 151.846 544.285 151.803 545.053 151.803C545.864 151.761 546.525 151.739 547.037 151.739V155.835H531.485Z" fill="#72172B"/>
<path d="M266.924 62.6695C266.64 60.5141 266.05 58.6435 265.155 57.0575C264.261 55.4308 263.061 54.1905 261.556 53.3365C260.092 52.4418 258.323 51.9945 256.249 51.9945C254.257 51.9945 252.589 52.5638 251.247 53.7025C249.946 54.8411 249.295 56.2441 249.295 57.9115C249.295 59.2941 249.682 60.4938 250.454 61.5105C251.268 62.5271 252.427 63.4625 253.931 64.3165C255.436 65.1298 257.225 65.9838 259.299 66.8785C260.845 67.5291 262.41 68.2611 263.996 69.0745C265.582 69.8471 267.046 70.7825 268.388 71.8805C269.73 72.9785 270.808 74.2595 271.621 75.7235C272.475 77.1468 272.902 78.8548 272.902 80.8475C272.902 83.2061 272.272 85.3005 271.011 87.1305C269.791 88.9605 268.043 90.3838 265.765 91.4005C263.488 92.4171 260.804 92.9255 257.713 92.9255C256.005 92.9255 254.196 92.6611 252.284 92.1325C250.373 91.6445 248.624 90.8921 247.038 89.8755L247.221 92.4985H243.073L242.951 78.6515H246.428C246.876 82.1081 248.157 84.7311 250.271 86.5205C252.386 88.2691 254.928 89.1435 257.896 89.1435C259.401 89.1435 260.743 88.8791 261.922 88.3505C263.102 87.7811 264.017 87.0288 264.667 86.0935C265.359 85.1175 265.704 84.0195 265.704 82.7995C265.704 81.2135 265.216 79.9121 264.24 78.8955C263.264 77.8788 262.024 77.0045 260.519 76.2725C259.015 75.5405 257.449 74.8288 255.822 74.1375C253.992 73.3648 252.264 72.5515 250.637 71.6975C249.011 70.8028 247.567 69.8065 246.306 68.7085C245.086 67.5698 244.11 66.2685 243.378 64.8045C242.687 63.3405 242.341 61.6121 242.341 59.6195C242.341 58.4401 242.565 57.1998 243.012 55.8985C243.46 54.5565 244.192 53.3161 245.208 52.1775C246.266 51.0388 247.669 50.1035 249.417 49.3715C251.166 48.6395 253.342 48.2735 255.944 48.2735C257.571 48.2735 259.34 48.5175 261.251 49.0055C263.203 49.4528 264.911 50.2051 266.375 51.2625L266.131 48.7005H270.34V62.6695H266.924ZM292.355 92.9255C289.427 92.9255 286.824 92.2748 284.547 90.9735C282.269 89.6315 280.5 87.7608 279.24 85.3615C277.979 82.9215 277.349 80.0545 277.349 76.7605C277.349 73.9138 277.979 71.2501 279.24 68.7695C280.5 66.2888 282.269 64.2961 284.547 62.7915C286.865 61.2461 289.549 60.4735 292.599 60.4735C294.307 60.4735 295.954 60.7175 297.54 61.2055C299.126 61.6935 300.549 62.5068 301.81 63.6455C303.07 64.7841 304.067 66.2888 304.799 68.1595C305.571 70.0301 305.937 72.3075 305.897 74.9915L285.401 75.3575C285.401 77.8788 285.685 80.1155 286.255 82.0675C286.865 83.9788 287.841 85.5038 289.183 86.6425C290.525 87.7405 292.294 88.2895 294.49 88.2895C295.466 88.2895 296.503 88.1268 297.601 87.8015C298.739 87.4355 299.858 86.9068 300.956 86.2155C302.054 85.4835 303.03 84.5888 303.884 83.5315L306.202 85.6665C304.86 87.6185 303.375 89.1231 301.749 90.1805C300.122 91.2378 298.495 91.9495 296.869 92.3155C295.242 92.7221 293.737 92.9255 292.355 92.9255ZM285.706 71.6975H298.394C298.353 70.0708 298.109 68.7085 297.662 67.6105C297.255 66.4718 296.645 65.6178 295.832 65.0485C295.018 64.4385 294.022 64.1335 292.843 64.1335C290.85 64.1335 289.244 64.8045 288.024 66.1465C286.844 67.4478 286.072 69.2981 285.706 71.6975ZM328.106 91.9495C327.984 91.3395 327.903 90.8311 327.862 90.4245C327.862 89.9771 327.842 89.4688 327.801 88.8995C326.418 90.2821 324.934 91.2988 323.348 91.9495C321.803 92.6001 320.196 92.9255 318.529 92.9255C315.764 92.9255 313.629 92.1731 312.124 90.6685C310.66 89.1638 309.928 87.3135 309.928 85.1175C309.928 83.1655 310.457 81.5185 311.514 80.1765C312.571 78.7938 313.954 77.6755 315.662 76.8215C317.37 75.9268 319.261 75.2558 321.335 74.8085C323.409 74.3205 325.463 74.0561 327.496 74.0155V70.6605C327.496 69.4811 327.354 68.4035 327.069 67.4275C326.825 66.4108 326.357 65.6178 325.666 65.0485C324.975 64.4385 323.958 64.1335 322.616 64.1335C321.721 64.1741 320.806 64.3775 319.871 64.7435C318.976 65.0688 318.265 65.5975 317.736 66.3295C318.061 66.6955 318.265 67.1021 318.346 67.5495C318.427 67.9561 318.468 68.3221 318.468 68.6475C318.468 69.3795 318.183 70.1521 317.614 70.9655C317.045 71.7381 316.13 72.1041 314.869 72.0635C313.771 72.0228 312.917 71.6365 312.307 70.9045C311.738 70.1725 311.453 69.2981 311.453 68.2815C311.453 66.7361 312.002 65.3941 313.1 64.2555C314.239 63.0761 315.764 62.1611 317.675 61.5105C319.586 60.8191 321.721 60.4735 324.08 60.4735C327.577 60.4735 330.261 61.3885 332.132 63.2185C334.003 65.0485 334.918 67.9765 334.877 72.0025C334.877 73.4258 334.877 74.7271 334.877 75.9065C334.877 77.0451 334.857 78.2041 334.816 79.3835C334.816 80.5221 334.816 81.8031 334.816 83.2265C334.816 83.8365 334.796 84.6091 334.755 85.5445C334.714 86.4391 334.653 87.3338 334.572 88.2285C335.304 88.1471 336.036 88.1065 336.768 88.1065C337.541 88.0658 338.171 88.0251 338.659 87.9845V91.9495H328.106ZM327.435 77.6145C326.215 77.6958 325.015 77.8991 323.836 78.2245C322.657 78.5091 321.599 78.9158 320.664 79.4445C319.729 79.9731 318.976 80.6441 318.407 81.4575C317.878 82.2301 317.634 83.1248 317.675 84.1415C317.716 85.4021 318.122 86.3375 318.895 86.9475C319.668 87.5168 320.562 87.8015 321.579 87.8015C322.758 87.8015 323.816 87.5575 324.751 87.0695C325.727 86.5815 326.622 85.9308 327.435 85.1175C327.435 84.7108 327.435 84.2838 327.435 83.8365C327.435 83.3891 327.435 82.9418 327.435 82.4945C327.435 81.9251 327.435 81.2135 327.435 80.3595C327.435 79.5055 327.435 78.5905 327.435 77.6145ZM354.007 92.9255C352.868 92.9255 351.75 92.7831 350.652 92.4985C349.594 92.2138 348.618 91.6851 347.724 90.9125C346.87 90.1398 346.178 89.0011 345.65 87.4965C345.121 85.9511 344.857 83.9178 344.857 81.3965L344.979 65.6585L340.648 65.7195V61.4495C341.868 61.4088 343.047 61.0021 344.186 60.2295C345.324 59.4161 346.321 58.3588 347.175 57.0575C348.029 55.7561 348.598 54.3735 348.883 52.9095H352.604L352.543 61.4495H361.144V65.3535L352.543 65.5365L352.482 81.2135C352.482 82.4335 352.583 83.5721 352.787 84.6295C353.031 85.6461 353.437 86.4595 354.007 87.0695C354.617 87.6795 355.43 87.9845 356.447 87.9845C357.219 87.9845 358.094 87.7405 359.07 87.2525C360.086 86.7645 361.103 85.7885 362.12 84.3245L364.621 86.5815C363.604 88.1268 362.547 89.3265 361.449 90.1805C360.391 91.0345 359.354 91.6648 358.338 92.0715C357.362 92.4781 356.487 92.7221 355.715 92.8035C354.942 92.8848 354.373 92.9255 354.007 92.9255ZM378.847 92.9255C377.709 92.9255 376.59 92.7831 375.492 92.4985C374.435 92.2138 373.459 91.6851 372.564 90.9125C371.71 90.1398 371.019 89.0011 370.49 87.4965C369.962 85.9511 369.697 83.9178 369.697 81.3965L369.819 65.6585L365.488 65.7195V61.4495C366.708 61.4088 367.888 61.0021 369.026 60.2295C370.165 59.4161 371.161 58.3588 372.015 57.0575C372.869 55.7561 373.439 54.3735 373.723 52.9095H377.444L377.383 61.4495H385.984V65.3535L377.383 65.5365L377.322 81.2135C377.322 82.4335 377.424 83.5721 377.627 84.6295C377.871 85.6461 378.278 86.4595 378.847 87.0695C379.457 87.6795 380.271 87.9845 381.287 87.9845C382.06 87.9845 382.934 87.7405 383.91 87.2525C384.927 86.7645 385.944 85.7885 386.96 84.3245L389.461 86.5815C388.445 88.1268 387.387 89.3265 386.289 90.1805C385.232 91.0345 384.195 91.6648 383.178 92.0715C382.202 92.4781 381.328 92.7221 380.555 92.8035C379.783 92.8848 379.213 92.9255 378.847 92.9255ZM390.76 88.7165C391.94 88.7165 392.773 88.4725 393.261 87.9845C393.79 87.4558 394.095 86.7238 394.176 85.7885C394.298 84.8531 394.359 83.7958 394.359 82.6165V56.2645C394.359 55.5731 394.38 54.8208 394.42 54.0075C394.461 53.1535 394.522 52.2791 394.603 51.3845C393.912 51.4251 393.16 51.4658 392.346 51.5065C391.533 51.5471 390.842 51.5878 390.272 51.6285V47.6635C392.143 47.6635 393.668 47.5821 394.847 47.4195C396.067 47.2161 397.003 46.9721 397.653 46.6875C398.345 46.4028 398.833 46.1385 399.117 45.8945H401.862L401.923 83.2265C401.923 83.8771 401.903 84.6701 401.862 85.6055C401.822 86.5001 401.74 87.3745 401.618 88.2285C402.31 88.1471 403.021 88.1065 403.753 88.1065C404.485 88.0658 405.095 88.0455 405.583 88.0455V91.9495H390.76V88.7165ZM424.422 92.9255C421.494 92.9255 418.891 92.2748 416.614 90.9735C414.337 89.6315 412.568 87.7608 411.307 85.3615C410.046 82.9215 409.416 80.0545 409.416 76.7605C409.416 73.9138 410.046 71.2501 411.307 68.7695C412.568 66.2888 414.337 64.2961 416.614 62.7915C418.932 61.2461 421.616 60.4735 424.666 60.4735C426.374 60.4735 428.021 60.7175 429.607 61.2055C431.193 61.6935 432.616 62.5068 433.877 63.6455C435.138 64.7841 436.134 66.2888 436.866 68.1595C437.639 70.0301 438.005 72.3075 437.964 74.9915L417.468 75.3575C417.468 77.8788 417.753 80.1155 418.322 82.0675C418.932 83.9788 419.908 85.5038 421.25 86.6425C422.592 87.7405 424.361 88.2895 426.557 88.2895C427.533 88.2895 428.57 88.1268 429.668 87.8015C430.807 87.4355 431.925 86.9068 433.023 86.2155C434.121 85.4835 435.097 84.5888 435.951 83.5315L438.269 85.6665C436.927 87.6185 435.443 89.1231 433.816 90.1805C432.189 91.2378 430.563 91.9495 428.936 92.3155C427.309 92.7221 425.805 92.9255 424.422 92.9255ZM417.773 71.6975H430.461C430.42 70.0708 430.176 68.7085 429.729 67.6105C429.322 66.4718 428.712 65.6178 427.899 65.0485C427.086 64.4385 426.089 64.1335 424.91 64.1335C422.917 64.1335 421.311 64.8045 420.091 66.1465C418.912 67.4478 418.139 69.2981 417.773 71.6975Z" fill="#05384B"/>
<path d="M4 30.6625L108.946 4L213.792 30.6625V85.3406C213.792 142.811 171.543 193.833 108.911 212C46.2619 193.833 4 142.8 4 85.3153V30.6625Z" fill="white" stroke="#05384B" stroke-width="7" stroke-linejoin="round"/>
<path d="M39 89.0689C39 67.2409 54.8073 47 76.4531 47C91.4739 47 102.62 56.0814 109.5 68.964C116.38 56.0823 127.525 47 142.547 47C164.195 47 180 67.2445 180 89.0689C180 135.789 109.5 169 109.5 169C109.5 169 39 137.799 39 89.0689Z" fill="#72172B"/>
</svg>
